HIERARCHY
ROOT pelvis
{
  OFFSET 0 100 0
  CHANNELS 6 Xposition Yposition Zposition Zrotation Xrotation Yrotation
  JOINT pelvis_right_femur
  {
    OFFSET -10.78128 -3.44521 -0.5502486
    CHANNELS 3 Zrotation Xrotation Yrotation
    JOINT right_femur_tibia
    {
      OFFSET -0.8047443 -44.0398 -0.1307829
      CHANNELS 3 Zrotation Xrotation Yrotation
      JOINT right_tibia_foot
      {
        OFFSET 3.006224 -47.83518 -5
        CHANNELS 3 Zrotation Xrotation Yrotation
        End Site
        {
          OFFSET 0 -5 15
        }
      }
    }
  }
  JOINT pelvis_left_femur
  {
    OFFSET 10.78128 -3.44521 -0.5502486
    CHANNELS 3 Zrotation Xrotation Yrotation
    JOINT left_femur_tibia
    {
      OFFSET 0.8047443 -44.0398 -0.1307829
      CHANNELS 3 Zrotation Xrotation Yrotation
      JOINT left_tibia_foot
      {
        OFFSET -4.370144 -48.10324 -4.275266
        CHANNELS 3 Zrotation Xrotation Yrotation
        End Site
        {
          OFFSET 0 -5 15
        }
      }
    }
  }
  JOINT pelvis_spine1
  {
    OFFSET 0 6.468898 -3.129235
    CHANNELS 3 Zrotation Xrotation Yrotation
    JOINT spine1
    {
      OFFSET 0 23.15396 4.99043
      CHANNELS 3 Zrotation Xrotation Yrotation
      JOINT spine2
      {
        OFFSET 0 20.79997 -5.064912
        CHANNELS 3 Zrotation Xrotation Yrotation
        JOINT neck
        {
          OFFSET 0 14.38658 9.616178
          CHANNELS 3 Zrotation Xrotation Yrotation
          End Site
          {
            OFFSET 0 20 0
          }
        }
      }
      JOINT right_manubrium
      {
        OFFSET -5.722621 16.35077 3.967754
        CHANNELS 3 Zrotation Xrotation Yrotation
        JOINT right_clavicle
        {
          OFFSET -13.16364 1.694482 -4.693211
          CHANNELS 3 Zrotation Xrotation Yrotation
          JOINT right_humerus
          {
            OFFSET -28.5034 -0.3100689 -2.792744
            CHANNELS 3 Zrotation Xrotation Yrotation
            JOINT right_radius
            {
              OFFSET -25.15693 0.02248979 -1.271978
              CHANNELS 3 Zrotation Xrotation Yrotation
              End Site
              {
                OFFSET -15 0 0
              }
            }
          }
        }
      }
      JOINT left_manubrium
      {
        OFFSET 5.722621 16.35077 3.967754
        CHANNELS 3 Zrotation Xrotation Yrotation
        JOINT left_clavicle
        {
          OFFSET 13.16364 1.694482 -4.693211
          CHANNELS 3 Zrotation Xrotation Yrotation
          JOINT left_humerus
          {
            OFFSET 29.39168 -1.063119 -2.237045
            CHANNELS 3 Zrotation Xrotation Yrotation
            JOINT left_radius
            {
              OFFSET 24.59957 -0.9528479 0.9047498
              CHANNELS 3 Zrotation Xrotation Yrotation
              End Site
              {
                OFFSET 15 -0 -0
              }
            }
          }
        }
      }
    }
  }
}
MOTION
Frames: 16
Frame Time: 0.0416666666667
42.32267 105.1533 239.9578 2.275092 -6.184644 4.916397 1.123754 10.46562 6.829773 6.257356e-06 36.52617 -1.48727e-05 4.148787 -10.51179 -3.034747 -3.960181 -14.49087 -9.832362 -6.132179e-06 19.86854 6.34621e-06 -7.834817 -11.48356 18.4107 -1.263599 -0.8685081 8.315188 -1.832054 9.317586 -3.132297 2.53274 21.28367 5.169806 2.467672 -16.60921 7.034419 2.02337 -21.1406 10.49008 82.48623 22.50574 -9.235315 6.041503e-06 -3.471394e-06 25.47215 -20.86301 10.09473 11.35452 4.87839 -15.00349 -2.711599 -94.81219 26.59357 26.37744 9.748272e-09 -1.291492e-06 -12.32152 -4.99514 6.458336 20.15554
43.94932 105.6746 246.0819 2.665392 -6.627759 5.376191 0.3929623 8.661462 6.792119 1.252272e-05 43.25997 -1.85038e-05 3.974134 -8.829423 -3.668069 -5.052723 -11.19195 -10.80664 -7.536901e-06 21.1127 1.015948e-05 -7.333145 -11.88619 18.13955 -1.664463 -1.067037 7.871755 -1.92447 9.311228 -3.33858 2.55668 21.62595 5.27756 2.461321 -16.41497 7.220277 2.280544 -20.26274 10.33469 83.22889 22.753 -10.31221 5.572104e-06 -4.233188e-06 23.93692 -20.40116 9.900234 10.71026 4.598521 -15.05974 -2.917026 -93.71575 27.21859 24.9389 -6.023432e-07 -3.030088e-06 -12.39565 -4.775208 6.711274 19.97389
45.50922 106.4985 251.8711 2.896094 -7.333977 6.067836 -0.003267343 5.277567 6.727633 2.038868e-05 49.8716 -2.118654e-05 3.53525 -7.6178 -4.594697 -5.679146 -7.301258 -11.49495 -1.104328e-05 21.34547 1.475305e-05 -6.82718 -12.65858 17.88074 -1.913419 -0.8665779 7.104811 -1.937958 9.380956 -3.721497 2.517387 22.06885 5.418928 2.392181 -16.13409 7.421605 2.545911 -19.38726 10.26786 84.27681 23.05452 -11.55068 4.255576e-06 -5.431425e-06 22.25737 -19.88299 9.848078 10.03689 4.354392 -15.37126 -3.315367 -92.36443 27.93887 22.87456 -6.242958e-07 -4.564317e-06 -12.99247 -4.442569 7.000277 19.66937
46.93719 107.4704 257.2203 2.854674 -7.953058 6.880783 0.1307056 0.6389049 6.644254 2.646399e-05 54.18429 -2.198988e-05 2.696309 -7.363679 -5.640495 -5.748693 -2.99513 -11.91698 -1.424619e-05 20.95284 1.765006e-05 -6.379786 -13.50912 17.56171 -1.930718 -0.4335167 6.09222 -1.744964 9.399234 -4.301193 2.426405 22.45498 5.513635 2.238662 -15.91245 7.592625 2.793925 -18.52595 10.22417 85.26034 23.5359 -12.89253 2.017272e-06 -6.843327e-06 20.44627 -19.01146 9.973428 9.254179 4.18163 -15.88352 -3.722838 -90.70847 28.63737 20.35119 -4.916063e-07 -6.719639e-06 -14.05994 -3.944208 7.42486 19.08858
48.26161 108.3846 262.3644 2.691501 -8.266784 7.771133 0.4762573 -4.263902 6.315344 2.968562e-05 55.26117 -2.159178e-05 1.917001 -7.302146 -6.626672 -5.50943 1.104436 -11.9627 -1.625138e-05 19.51951 1.996278e-05 -6.32758 -14.66334 16.99034 -1.822719 0.04542534 5.097726 -1.477469 9.274608 -4.902231 2.391907 22.74359 5.555171 2.069738 -15.78836 7.762932 2.773791 -17.78281 10.09764 86.48086 23.76666 -14.21658 -3.422856e-07 -6.936352e-06 18.87262 -18.39286 10.20284 8.699287 4.250849 -16.5066 -4.062151 -89.31059 29.12283 17.80953 -5.307711e-08 -7.878479e-06 -15.50243 -3.491692 7.753408 18.53043
49.44675 108.9491 267.1545 2.633563 -8.41746 8.682016 0.7988306 -9.261539 5.974295 2.829284e-05 52.80031 -1.652074e-05 1.114693 -7.63693 -7.486765 -5.262204 4.646982 -12.07576 -1.6384e-05 17.30943 1.660374e-05 -6.01275 -16.16674 16.73658 -1.834795 0.6142802 4.223026 -1.107886 9.119636 -5.448179 2.377748 22.90389 5.571396 1.943678 -15.66354 7.891763 2.658327 -17.11198 9.97632 87.08867 23.99053 -15.33878 -2.05771e-06 -6.669755e-06 17.36721 -17.64404 10.33187 8.149595 4.561336 -17.21024 -4.344974 -87.6364 29.3999 15.09637 -4.980183e-07 -8.08078e-06 -17.08487 -2.935671 8.207431 17.69427
50.52343 109.0633 271.8756 2.634404 -8.19801 9.549297 0.9701439 -13.72032 5.368959 2.512997e-05 47.19008 -1.21966e-05 0.5355533 -8.049297 -8.227219 -5.073628 7.874306 -11.98867 -1.45329e-05 15.05891 1.212423e-05 -6.015602 -17.81271 16.31243 -1.927025 1.007463 3.548585 -0.7091257 8.760889 -5.936028 2.464158 23.00861 5.506616 1.839148 -15.56829 8.005883 2.319114 -16.39639 9.710611 87.7781 24.03993 -16.49503 -3.3402e-06 -5.167362e-06 15.92192 -17.12393 10.45455 7.736191 5.109025 -17.93787 -4.444914 -86.15102 29.50567 12.32925 -1.37002e-06 -7.70711e-06 -18.90982 -2.458941 8.576642 16.89478
51.53446 108.7142 276.7796 2.750144 -7.684467 10.34653 0.8685934 -17.27304 4.53213 2.171859e-05 39.71781 -1.020192e-05 0.1997947 -8.430194 -8.824428 -5.084794 10.74676 -11.78083 -1.123495e-05 13.45422 7.831689e-06 -6.228872 -19.40538 15.80541 -2.157152 1.136798 3.124056 -0.3307546 8.257065 -6.349666 2.631593 23.12097 5.384691 1.777097 -15.48328 8.098915 1.854817 -15.59905 9.336675 88.58495 24.00276 -17.74036 -4.090076e-06 -2.849111e-06 14.45407 -16.83631 10.53401 7.403661 5.798484 -18.6643 -4.369254 -84.89047 29.49471 9.586947 -2.596958e-06 -6.972655e-06 -20.88089 -2.051998 8.88627 16.15593
52.44505 107.8861 281.7136 2.946501 -7.177567 11.04114 0.6482479 -20.46247 3.722366 1.870827e-05 32.0559 -8.278489e-06 -0.2342081 -9.03791 -9.260784 -5.22674 13.2538 -11.73049 -8.324471e-06 12.53786 2.629192e-06 -6.170539 -20.84938 15.55467 -2.472415 1.231149 2.803909 0.04604567 7.78188 -6.697027 2.764075 23.26759 5.294513 1.75874 -15.38592 8.164597 1.485183 -14.76293 9.018318 89.04007 24.11407 -18.94736 -4.284593e-06 -1.337435e-06 12.84081 -16.36728 10.44835 6.933973 6.471593 -19.39322 -4.260992 -83.46258 29.4313 6.799442 -4.345407e-06 -6.394578e-06 -22.83822 -1.506734 9.336304 15.21952
53.26761 106.7672 286.7548 3.000065 -6.602481 11.58912 0.5346525 -22.74949 2.95323 1.674872e-05 25.44313 -7.762531e-06 -0.8612492 -9.736506 -9.45183 -5.313335 15.39544 -11.65364 -5.94239e-06 12.79081 1.947574e-06 -6.163701 -21.63138 15.28475 -2.664475 1.137301 2.536183 0.3918405 7.299514 -6.99089 2.845405 23.44677 5.219998 1.754533 -15.39643 8.19267 1.201471 -13.94076 8.730066 89.41563 24.35343 -20.07682 -4.45894e-06 -4.363421e-08 11.15236 -15.83429 10.28116 6.411513 6.977487 -20.03242 -4.075482 -82.19891 29.34495 4.377388 -5.250529e-06 -5.889266e-06 -24.57413 -0.8537034 9.876452 14.21508
54.00927 105.5775 291.9513 2.834593 -6.193815 11.99388 0.7322 -24.17687 2.494421 1.665518e-05 21.36265 -7.71867e-06 -1.655887 -10.38727 -9.543113 -5.199785 17.3009 -11.59493 -4.228506e-06 14.06756 6.839736e-06 -6.297952 -21.60768 15.03999 -2.60833 0.9476533 2.214854 0.6796945 6.905987 -7.230641 2.876503 23.64726 5.150826 1.72763 -15.48811 8.198485 1.053119 -13.23411 8.519384 89.78281 24.60457 -20.99688 -4.968082e-06 1.194593e-06 9.578025 -15.24435 10.10296 5.871025 7.208138 -20.48203 -3.892673 -81.27166 29.30884 2.588297 -4.567295e-06 -5.243503e-06 -25.74589 -0.1946629 10.44491 13.31234
54.73221 104.6413 297.5324 2.453104 -6.047775 12.28875 1.262633 -24.34666 2.435347 1.899032e-05 20.88473 -8.804776e-06 -2.403457 -10.46848 -9.661821 -4.896806 19.1069 -11.50876 -2.407502e-06 16.56871 1.839824e-05 -6.881156 -20.66029 14.73134 -2.271556 0.6121747 1.836434 0.8537735 6.625804 -7.387957 2.925895 23.88928 5.051907 1.672103 -15.66151 8.212305 1.007988 -12.67612 8.356932 90.51886 24.65384 -21.67339 -5.966767e-06 3.393317e-06 8.281234 -14.84133 10.01267 5.457286 7.123002 -20.62721 -3.719226 -81.13051 29.42714 1.777483 -1.690216e-06 -3.990206e-06 -25.99769 0.2456046 10.90043 12.84671
55.43141 104.1741 303.4441 1.933691 -6.269482 12.44733 2.268566 -23.33991 2.979774 2.184587e-05 22.74863 -9.246079e-06 -3.232795 -10.25511 -9.788215 -4.366382 20.18701 -11.51148 -3.775282e-07 20.66992 2.944941e-05 -7.5459 -18.82563 14.75102 -1.698205 0.3060266 1.488193 0.9737475 6.600156 -7.41803 2.974764 24.07098 4.912358 1.613976 -15.87874 8.183336 1.106 -12.36731 8.343053 91.01106 24.61199 -21.9037 -7.105148e-06 5.595052e-06 7.352566 -14.37735 9.95987 5.077371 6.751303 -20.48141 -3.601199 -81.53618 29.58744 2.033355 2.19727e-06 -2.407536e-06 -25.20207 0.5296769 11.33111 12.63823
56.10889 104.306 309.6409 1.405863 -6.717723 12.42771 3.544637 -21.13773 3.89067 2.324697e-05 25.2175 -9.720956e-06 -4.054446 -10.00986 -9.866613 -3.759541 20.09499 -11.52382 2.125634e-06 26.67376 3.531534e-05 -8.345144 -16.40897 15.07468 -1.018007 0.07236562 1.340813 1.044114 6.753923 -7.281955 3.067882 24.24306 4.721058 1.579378 -16.12471 8.126614 1.254516 -12.28018 8.449229 91.36142 24.48723 -21.77697 -7.948424e-06 7.343615e-06 6.86046 -13.91098 9.918539 4.744839 6.245694 -20.11512 -3.474227 -82.64092 29.81908 3.264837 5.57997e-06 -1.172475e-06 -23.66106 0.5946074 11.69479 12.71975
56.70816 104.9553 315.7522 1.182844 -7.446017 12.22566 4.608006 -17.70478 4.922479 2.305162e-05 27.34824 -8.588917e-06 -4.898827 -10.13447 -9.766623 -3.317008 17.86319 -11.60181 4.203634e-06 33.79181 3.257811e-05 -8.74036 -13.9365 16.04226 -0.535568 0.1195515 1.558459 1.017278 7.129396 -6.893414 3.162162 24.49886 4.543872 1.620692 -16.25699 8.029559 1.444011 -12.46634 8.732524 91.14646 24.50078 -21.09265 -7.783336e-06 7.869086e-06 6.902547 -13.47344 9.727233 4.480307 5.708923 -19.62567 -3.398842 -84.12979 30.09639 5.196729 7.042423e-06 9.82818e-08 -21.58001 0.532725 12.05704 12.90499
57.18396 105.8707 321.4594 1.32024 -8.324971 11.85222 5.173986 -13.70705 5.764523 2.100405e-05 27.96237 -5.926248e-06 -5.575066 -10.74856 -9.551798 -3.108267 13.86798 -11.64594 7.885629e-06 40.16855 2.020402e-05 -8.771895 -12.03574 17.40147 -0.3604916 0.4874512 2.092015 0.8895714 7.579624 -6.298568 3.277546 24.82285 4.373424 1.698675 -16.18248 7.921182 1.529577 -12.88595 9.088728 90.44501 24.50135 -19.90301 -6.665312e-06 7.207361e-06 7.522238 -13.2348 9.420654 4.390871 5.32401 -19.1052 -3.368899 -85.72941 30.34713 7.331988 6.075594e-06 9.999369e-07 -19.40996 0.3217126 12.34065 13.17211
